<?xml version="1.0" encoding="utf-8"?>
<!-- Generator: Adobe Illustrator 26.5.0, SVG Export Plug-In . SVG Version: 6.00 Build 0)  -->
<svg version="1.1" id="Layer_1" xmlns="http://www.w3.org/2000/svg" xmlns:xlink="http://www.w3.org/1999/xlink" x="0px" y="0px"
	 viewBox="0 0 100 100" style="enable-background:new 0 0 100 100;" xml:space="preserve">
<g>
	<path d="M76.8,31.1V31c0-0.1,0-0.1,0-0.2l0,0c0-0.5,0-1,0-1.5c-0.1-1.6-1.2-3-2.7-3.3c-1.6-0.4-3.2,0.3-4,1.7
		c-1.3,2.3-2.5,4.6-3.5,6.7c-0.6,1.3-1.1,2.3-1.6,3.3c-0.4,0.8-0.7,1.7-1.1,2.5c-0.4,1-0.9,2-1.3,3c-0.7,1.6-1.2,2.9-1.7,4.2
		c-0.4,1.1-0.8,2.2-1.2,3.3c-0.1,0.2-0.2,0.5-0.3,0.7c-0.2-0.4-0.4-0.7-0.6-1.1c-0.3-0.5-0.5-0.9-0.8-1.3l-0.5-0.8
		c-0.1-0.2-0.2-0.4-0.4-0.7c-0.5-0.8-1.1-1.4-1.8-2c-1.2-0.9-2.6-1.5-4.1-1.7c-0.3,0-0.7-0.1-1-0.1c-1.1,0-2.2,0.2-3.2,0.7
		c-0.7,0.3-1.3,0.7-1.9,1.1c-0.7,0.5-1.1,1-1.5,1.5v0.1C42.8,48,42,49,41.3,49.8c-0.6,0.7-1.1,1.4-1.7,2L39,52.2
		c-0.6,0.7-1.1,1.3-1.5,1.8c-0.2,0.2-0.3,0.4-0.5,0.7c-1-0.7-2.1-1.4-3.2-2.2c-1.7-1.1-3.2-2-4.6-2.8h-0.1c-0.2-0.1-0.4-0.2-0.5-0.3
		c-1.4-0.8-3.1-0.5-4.2,0.6s-1.4,2.8-0.6,4.2c0.8,1.6,1.8,3,2.8,4.7c0.8,1.3,1.7,2.6,2.6,3.9c0.7,1.1,1.5,2.1,2.3,3.3
		c0.6,0.9,1.3,1.8,1.9,2.6c1.2,1.6,3,2.5,4.9,2.6c1,0,1.9-0.2,2.8-0.6c0.6-0.3,1-0.6,1.4-0.9c0.7-0.5,1.4-1.1,2.1-1.6
		c0.8-0.6,1.5-1.1,2.2-1.7v0.1c0.3,0.7,0.7,1.4,1,2c0.4,0.8,0.8,1.6,1.2,2.4c0.3,0.7,0.7,1.4,1,2c0.4,0.8,0.8,1.6,1.2,2.4
		c0.4,0.7,0.7,1.4,1,2.1c0.4,0.8,0.8,1.6,1.2,2.3c0.6,1.1,1.3,2,2.1,2.8c1.1,1,2.5,1.8,3.9,2.1c0.8,0.2,1.5,0.3,2.3,0.3l0,0
		c2,0,4-0.7,5.6-1.8c1.1-0.8,2-1.9,2.7-3.1c0.6-1.2,0.9-2.4,1.1-3.4c0-0.2,0.1-0.3,0.1-0.4c0.6-2.5,1.1-5,1.6-7.3
		c0.3-1.4,0.6-2.8,0.8-4.4c0.5-2.8,0.9-5.1,1.2-7.4v-0.3c0.1-0.8,0.2-1.6,0.3-2.4c0.2-1.2,0.3-2.4,0.5-3.5c0.2-1.4,0.3-2.8,0.5-4.5
		c0.1-1.2,0.2-2.2,0.3-3.3c0.1-1,0.2-1.9,0.2-2.8c0.1-1.1,0.1-2.2,0.2-3.6C76.8,34.7,76.8,32.8,76.8,31.1L76.8,31.1z"/>
	<path d="M60.6,19.3l0.6,3.3c0.2,1,1,1.8,2.1,1.8c0.5,0,1-0.2,1.4-0.5l2.5-2.3l3.3-0.6c0.8-0.1,1.4-0.7,1.6-1.4
		c0.2-0.7,0.1-1.5-0.4-2.1L69.4,15l-0.6-3.3c-0.2-1-1.1-1.8-2.1-1.8c-0.5,0-1,0.2-1.4,0.6l-2.5,2.3l-3.3,0.6
		c-0.8,0.1-1.4,0.7-1.6,1.4c-0.2,0.7-0.1,1.5,0.4,2.1L60.6,19.3L60.6,19.3z"/>
</g>
</svg>
